# xmcd
# 
# Track frame offsets:
#     150
#     18552
#     43166
#     63646
#     85625
#     104458
#     118686
#     161078
#     183559
#     209344
#     226073
#     252568
#     278659
# 
# Disc length: 4036
# 
# Revision: 4
# Processed by: cddbd v1.5.2PL0 Copyright (c) Steve Scherf et al.
# Submitted via: fre:ac v1.1beta1pre4
# 
DISCID=b70fc20d
DTITLE=Cracker - Greatest Hits Redux
DYEAR=2006
DGENRE=Rock
TTITLE0=Teen angst (what the world needs now)
TTITLE1=I see the light
TTITLE2=Mr. Wrong
TTITLE3=Low
TTITLE4=Get off this
TTITLE5=Lonesome Johnny blues
TTITLE6=Euro-Trash girl
TTITLE7=Sweet thistle pie
TTITLE8=Big dipper
TTITLE9=The world is mine
TTITLE10=Duty free
TTITLE11=Ain't gonna suck itself
TTITLE12=Something you ain't got
EXTD=
EXTT0=
EXTT1=
EXTT2=
EXTT3=
EXTT4=
EXTT5=
EXTT6=
EXTT7=
EXTT8=
EXTT9=
EXTT10=
EXTT11=
EXTT12=
PLAYORDER=
